<mxfile host="app.diagrams.net" agent="Mozilla/5.0 (Macintosh; Intel Mac OS X 10_15_7) AppleWebKit/605.1.15 (KHTML, like Gecko) Version/18.5 Safari/605.1.15" version="28.0.4">
  <diagram name="Page-1" id="JjHDM80KxYJ_L3gZCmlJ">
    <mxGraphModel dx="1026" dy="1040" grid="1" gridSize="10" guides="1" tooltips="1" connect="1" arrows="1" fold="1" page="1" pageScale="1" pageWidth="850" pageHeight="1100" math="0" shadow="0">
      <root>
        <mxCell id="0" />
        <mxCell id="1" parent="0" />
        <mxCell id="yqlizIOzhmRSdvPa-sfz-3" value="" style="edgeStyle=none;curved=1;rounded=0;orthogonalLoop=1;jettySize=auto;html=1;fontSize=12;startSize=8;endSize=8;" edge="1" parent="1" source="yqlizIOzhmRSdvPa-sfz-1" target="yqlizIOzhmRSdvPa-sfz-2">
          <mxGeometry relative="1" as="geometry" />
        </mxCell>
        <mxCell id="yqlizIOzhmRSdvPa-sfz-1" value="Init" style="rounded=0;whiteSpace=wrap;html=1;" vertex="1" parent="1">
          <mxGeometry x="60" y="100" width="120" height="60" as="geometry" />
        </mxCell>
        <mxCell id="yqlizIOzhmRSdvPa-sfz-5" value="" style="edgeStyle=none;curved=1;rounded=0;orthogonalLoop=1;jettySize=auto;html=1;fontSize=12;startSize=8;endSize=8;" edge="1" parent="1" source="yqlizIOzhmRSdvPa-sfz-2" target="yqlizIOzhmRSdvPa-sfz-4">
          <mxGeometry relative="1" as="geometry" />
        </mxCell>
        <mxCell id="yqlizIOzhmRSdvPa-sfz-2" value="Is null ?" style="shape=hexagon;perimeter=hexagonPerimeter2;whiteSpace=wrap;html=1;fixedSize=1;rounded=0;" vertex="1" parent="1">
          <mxGeometry x="300" y="90" width="120" height="80" as="geometry" />
        </mxCell>
        <mxCell id="yqlizIOzhmRSdvPa-sfz-7" value="" style="edgeStyle=none;curved=1;rounded=0;orthogonalLoop=1;jettySize=auto;html=1;fontSize=12;startSize=8;endSize=8;" edge="1" parent="1" source="yqlizIOzhmRSdvPa-sfz-4" target="yqlizIOzhmRSdvPa-sfz-6">
          <mxGeometry relative="1" as="geometry" />
        </mxCell>
        <mxCell id="yqlizIOzhmRSdvPa-sfz-4" value="Ok pr" style="shape=parallelogram;perimeter=parallelogramPerimeter;whiteSpace=wrap;html=1;fixedSize=1;rounded=0;" vertex="1" parent="1">
          <mxGeometry x="300" y="300" width="120" height="60" as="geometry" />
        </mxCell>
        <mxCell id="yqlizIOzhmRSdvPa-sfz-6" value="Add text" style="shape=trapezoid;perimeter=trapezoidPerimeter;whiteSpace=wrap;html=1;fixedSize=1;rounded=0;" vertex="1" parent="1">
          <mxGeometry x="300" y="480" width="120" height="60" as="geometry" />
        </mxCell>
        <mxCell id="yqlizIOzhmRSdvPa-sfz-10" value="" style="edgeStyle=none;curved=1;rounded=0;orthogonalLoop=1;jettySize=auto;html=1;fontSize=12;startSize=8;endSize=8;" edge="1" parent="1" source="yqlizIOzhmRSdvPa-sfz-8" target="yqlizIOzhmRSdvPa-sfz-6">
          <mxGeometry relative="1" as="geometry" />
        </mxCell>
        <mxCell id="yqlizIOzhmRSdvPa-sfz-12" value="" style="edgeStyle=none;curved=1;rounded=0;orthogonalLoop=1;jettySize=auto;html=1;fontSize=12;startSize=8;endSize=8;" edge="1" parent="1" source="yqlizIOzhmRSdvPa-sfz-8" target="yqlizIOzhmRSdvPa-sfz-11">
          <mxGeometry relative="1" as="geometry" />
        </mxCell>
        <mxCell id="yqlizIOzhmRSdvPa-sfz-8" value="Complete" style="ellipse;whiteSpace=wrap;html=1;rounded=0;" vertex="1" parent="1">
          <mxGeometry x="294.28999999999996" y="640" width="140" height="140" as="geometry" />
        </mxCell>
        <mxCell id="yqlizIOzhmRSdvPa-sfz-11" value="Done" style="whiteSpace=wrap;html=1;rounded=0;" vertex="1" parent="1">
          <mxGeometry x="564.29" y="680" width="120" height="60" as="geometry" />
        </mxCell>
      </root>
    </mxGraphModel>
  </diagram>
</mxfile>
